<mxfile host="app.diagrams.net" modified="2023-09-13T09:39:11.832Z" agent="Mozilla/5.0 (Windows NT 10.0; Win64; x64) AppleWebKit/537.36 (KHTML, like Gecko) Chrome/116.0.0.0 Safari/537.36" etag="siBvuz_sjUU7L7O7G-hm" version="21.7.2" type="device">
  <diagram name="Страница — 1" id="IpOM7aFlW2fUJSPDytiN">
    <mxGraphModel dx="953" dy="629" grid="1" gridSize="10" guides="1" tooltips="1" connect="1" arrows="1" fold="1" page="1" pageScale="1" pageWidth="827" pageHeight="1169" math="0" shadow="0">
      <root>
        <mxCell id="0" />
        <mxCell id="1" parent="0" />
        <mxCell id="fCeBfL8IaCKCttz6qKai-1" value="" style="rounded=1;whiteSpace=wrap;html=1;" vertex="1" parent="1">
          <mxGeometry x="100" y="80" width="190" height="320" as="geometry" />
        </mxCell>
        <mxCell id="fCeBfL8IaCKCttz6qKai-2" value="login" style="rounded=0;whiteSpace=wrap;html=1;" vertex="1" parent="1">
          <mxGeometry x="130" y="170" width="120" height="20" as="geometry" />
        </mxCell>
        <mxCell id="fCeBfL8IaCKCttz6qKai-4" value="password" style="rounded=0;whiteSpace=wrap;html=1;" vertex="1" parent="1">
          <mxGeometry x="130" y="200" width="120" height="20" as="geometry" />
        </mxCell>
        <mxCell id="fCeBfL8IaCKCttz6qKai-5" value="Войти" style="ellipse;whiteSpace=wrap;html=1;" vertex="1" parent="1">
          <mxGeometry x="130" y="245" width="120" height="50" as="geometry" />
        </mxCell>
        <mxCell id="fCeBfL8IaCKCttz6qKai-6" value="Зарегистрироваться" style="ellipse;whiteSpace=wrap;html=1;" vertex="1" parent="1">
          <mxGeometry x="135" y="315" width="120" height="50" as="geometry" />
        </mxCell>
        <mxCell id="fCeBfL8IaCKCttz6qKai-7" value="" style="rounded=1;whiteSpace=wrap;html=1;" vertex="1" parent="1">
          <mxGeometry x="310" y="300" width="120" height="60" as="geometry" />
        </mxCell>
        <mxCell id="fCeBfL8IaCKCttz6qKai-8" value="" style="rounded=1;whiteSpace=wrap;html=1;" vertex="1" parent="1">
          <mxGeometry x="310" y="80" width="170" height="320" as="geometry" />
        </mxCell>
        <mxCell id="fCeBfL8IaCKCttz6qKai-13" value="Услуги" style="swimlane;fontStyle=0;childLayout=stackLayout;horizontal=1;startSize=30;horizontalStack=0;resizeParent=1;resizeParentMax=0;resizeLast=0;collapsible=1;marginBottom=0;whiteSpace=wrap;html=1;" vertex="1" parent="1">
          <mxGeometry x="345" y="150" width="90" height="120" as="geometry" />
        </mxCell>
        <mxCell id="fCeBfL8IaCKCttz6qKai-14" value="100ГБ" style="text;strokeColor=none;fillColor=none;align=left;verticalAlign=middle;spacingLeft=4;spacingRight=4;overflow=hidden;points=[[0,0.5],[1,0.5]];portConstraint=eastwest;rotatable=0;whiteSpace=wrap;html=1;" vertex="1" parent="fCeBfL8IaCKCttz6qKai-13">
          <mxGeometry y="30" width="90" height="30" as="geometry" />
        </mxCell>
        <mxCell id="fCeBfL8IaCKCttz6qKai-15" value="200ГБ" style="text;strokeColor=none;fillColor=none;align=left;verticalAlign=middle;spacingLeft=4;spacingRight=4;overflow=hidden;points=[[0,0.5],[1,0.5]];portConstraint=eastwest;rotatable=0;whiteSpace=wrap;html=1;" vertex="1" parent="fCeBfL8IaCKCttz6qKai-13">
          <mxGeometry y="60" width="90" height="30" as="geometry" />
        </mxCell>
        <mxCell id="fCeBfL8IaCKCttz6qKai-16" value="300ГБ" style="text;strokeColor=none;fillColor=none;align=left;verticalAlign=middle;spacingLeft=4;spacingRight=4;overflow=hidden;points=[[0,0.5],[1,0.5]];portConstraint=eastwest;rotatable=0;whiteSpace=wrap;html=1;" vertex="1" parent="fCeBfL8IaCKCttz6qKai-13">
          <mxGeometry y="90" width="90" height="30" as="geometry" />
        </mxCell>
        <mxCell id="fCeBfL8IaCKCttz6qKai-17" value="" style="rounded=1;whiteSpace=wrap;html=1;" vertex="1" parent="1">
          <mxGeometry x="520" y="80" width="190" height="320" as="geometry" />
        </mxCell>
        <mxCell id="fCeBfL8IaCKCttz6qKai-18" value="Положить в корзину" style="ellipse;whiteSpace=wrap;html=1;" vertex="1" parent="1">
          <mxGeometry x="330" y="310" width="120" height="50" as="geometry" />
        </mxCell>
        <mxCell id="fCeBfL8IaCKCttz6qKai-19" value="" style="rounded=0;whiteSpace=wrap;html=1;" vertex="1" parent="1">
          <mxGeometry x="540" y="170" width="120" height="140" as="geometry" />
        </mxCell>
        <mxCell id="fCeBfL8IaCKCttz6qKai-20" value="Корзина" style="rounded=0;whiteSpace=wrap;html=1;" vertex="1" parent="1">
          <mxGeometry x="540" y="110" width="160" height="40" as="geometry" />
        </mxCell>
        <mxCell id="fCeBfL8IaCKCttz6qKai-21" value="" style="verticalLabelPosition=bottom;verticalAlign=top;html=1;shape=mxgraph.basic.tick" vertex="1" parent="1">
          <mxGeometry x="445" y="180" width="24" height="20" as="geometry" />
        </mxCell>
        <mxCell id="fCeBfL8IaCKCttz6qKai-22" value="" style="verticalLabelPosition=bottom;verticalAlign=top;html=1;shape=mxgraph.basic.tick" vertex="1" parent="1">
          <mxGeometry x="445" y="210" width="24" height="20" as="geometry" />
        </mxCell>
        <mxCell id="fCeBfL8IaCKCttz6qKai-23" value="" style="verticalLabelPosition=bottom;verticalAlign=top;html=1;shape=mxgraph.basic.tick" vertex="1" parent="1">
          <mxGeometry x="445" y="245" width="24" height="20" as="geometry" />
        </mxCell>
        <mxCell id="fCeBfL8IaCKCttz6qKai-24" value="" style="verticalLabelPosition=bottom;verticalAlign=top;html=1;shape=mxgraph.basic.tick" vertex="1" parent="1">
          <mxGeometry x="676" y="180" width="24" height="20" as="geometry" />
        </mxCell>
        <mxCell id="fCeBfL8IaCKCttz6qKai-25" value="" style="verticalLabelPosition=bottom;verticalAlign=top;html=1;shape=mxgraph.basic.tick" vertex="1" parent="1">
          <mxGeometry x="676" y="220" width="24" height="20" as="geometry" />
        </mxCell>
        <mxCell id="fCeBfL8IaCKCttz6qKai-26" value="" style="verticalLabelPosition=bottom;verticalAlign=top;html=1;shape=mxgraph.basic.tick" vertex="1" parent="1">
          <mxGeometry x="676" y="260" width="24" height="20" as="geometry" />
        </mxCell>
        <mxCell id="fCeBfL8IaCKCttz6qKai-27" value="Оформить заказ" style="ellipse;whiteSpace=wrap;html=1;" vertex="1" parent="1">
          <mxGeometry x="550" y="330" width="120" height="50" as="geometry" />
        </mxCell>
        <mxCell id="fCeBfL8IaCKCttz6qKai-29" value="" style="rounded=1;whiteSpace=wrap;html=1;" vertex="1" parent="1">
          <mxGeometry x="740" y="80" width="170" height="320" as="geometry" />
        </mxCell>
        <mxCell id="fCeBfL8IaCKCttz6qKai-30" value="Оформить автоплатеж" style="rounded=1;whiteSpace=wrap;html=1;" vertex="1" parent="1">
          <mxGeometry x="750" y="100" width="150" height="40" as="geometry" />
        </mxCell>
        <mxCell id="fCeBfL8IaCKCttz6qKai-35" value="нет" style="ellipse;whiteSpace=wrap;html=1;" vertex="1" parent="1">
          <mxGeometry x="840" y="240" width="40" height="30" as="geometry" />
        </mxCell>
        <mxCell id="fCeBfL8IaCKCttz6qKai-36" value="Да" style="ellipse;whiteSpace=wrap;html=1;" vertex="1" parent="1">
          <mxGeometry x="770" y="150" width="120" height="80" as="geometry" />
        </mxCell>
        <mxCell id="fCeBfL8IaCKCttz6qKai-38" value="GB HW Cloud&lt;br&gt;" style="whiteSpace=wrap;html=1;shape=mxgraph.basic.cloud_callout" vertex="1" parent="1">
          <mxGeometry x="140" y="80" width="110" height="80" as="geometry" />
        </mxCell>
        <mxCell id="fCeBfL8IaCKCttz6qKai-39" value="GB HW Cloud&lt;br&gt;" style="whiteSpace=wrap;html=1;shape=mxgraph.basic.cloud_callout" vertex="1" parent="1">
          <mxGeometry x="340" y="80" width="110" height="80" as="geometry" />
        </mxCell>
        <mxCell id="fCeBfL8IaCKCttz6qKai-41" value="GB HW Cloud&lt;br&gt;" style="whiteSpace=wrap;html=1;shape=mxgraph.basic.cloud_callout" vertex="1" parent="1">
          <mxGeometry x="750" y="300" width="110" height="80" as="geometry" />
        </mxCell>
      </root>
    </mxGraphModel>
  </diagram>
</mxfile>
